<svg xmlns="http://www.w3.org/2000/svg" width="850" height="200" viewBox="0 0 850 200"><style>
.wire { stroke: #444; stroke-width: 2; }
.gate-box { fill: #fff; stroke: #111; stroke-width: 2; }
.channel-box { fill: #fff; stroke: #111; stroke-width: 2; stroke-dasharray: 6 4; }
.gate-label, .gate-param-label, .channel-label, .annotation-label { fill: #111; font-family: monospace; text-anchor: middle; dominant-baseline: middle; }
.gate-param-label { fill: #555; font-size: 10px; }
.annotation-label { dominant-baseline: auto; }
.control, .phase-target { fill: #111; stroke: #111; stroke-width: 2; }
.phase-label { fill: #111; font-family: monospace; font-size: 12px; text-anchor: start; dominant-baseline: middle; }
.control-open { fill: #fff; stroke: #111; stroke-width: 2; }
.control-link { stroke: #111; stroke-width: 2; }
.target-x { fill: none; stroke: #111; stroke-width: 2; }
.swap-marker { stroke: #111; stroke-width: 2; }
</style><line class="wire" x1="16" y1="28" x2="834" y2="28"/><line class="wire" x1="16" y1="76" x2="834" y2="76"/><line class="wire" x1="16" y1="124" x2="834" y2="124"/><line class="wire" x1="16" y1="172" x2="834" y2="172"/><rect class="gate-box" x="47" y="14" width="42" height="28" rx="6" ry="6" data-label="H"/><text class="gate-label" x="68" y="28">H</text><line class="control-link" x1="145.5" y1="23" x2="145.5" y2="81"/><circle class="control" cx="145.5" cy="76" r="5"/><circle class="phase-target" cx="145.5" cy="28" r="5"/><text class="phase-label" x="155.5" y="52">π/2</text><line class="control-link" x1="228.5" y1="23" x2="228.5" y2="129"/><circle class="control" cx="228.5" cy="124" r="5"/><circle class="phase-target" cx="228.5" cy="28" r="5"/><text class="phase-label" x="238.5" y="52">π/4</text><line class="control-link" x1="311.5" y1="23" x2="311.5" y2="177"/><circle class="control" cx="311.5" cy="172" r="5"/><circle class="phase-target" cx="311.5" cy="28" r="5"/><text class="phase-label" x="321.5" y="52">π/8</text><rect class="gate-box" x="368" y="62" width="42" height="28" rx="6" ry="6" data-label="H"/><text class="gate-label" x="389" y="76">H</text><line class="control-link" x1="466.5" y1="71" x2="466.5" y2="129"/><circle class="control" cx="466.5" cy="124" r="5"/><circle class="phase-target" cx="466.5" cy="76" r="5"/><text class="phase-label" x="476.5" y="100">π/2</text><line class="control-link" x1="549.5" y1="71" x2="549.5" y2="177"/><circle class="control" cx="549.5" cy="172" r="5"/><circle class="phase-target" cx="549.5" cy="76" r="5"/><text class="phase-label" x="559.5" y="100">π/4</text><rect class="gate-box" x="606" y="110" width="42" height="28" rx="6" ry="6" data-label="H"/><text class="gate-label" x="627" y="124">H</text><line class="control-link" x1="704.5" y1="119" x2="704.5" y2="177"/><circle class="control" cx="704.5" cy="172" r="5"/><circle class="phase-target" cx="704.5" cy="124" r="5"/><text class="phase-label" x="714.5" y="148">π/2</text><rect class="gate-box" x="761" y="158" width="42" height="28" rx="6" ry="6" data-label="H"/><text class="gate-label" x="782" y="172">H</text></svg>