<svg xmlns="http://www.w3.org/2000/svg" width="984" height="372" viewBox="0 0 984 372" role="img" aria-labelledby="title desc">
  <title id="title">qcbm-static-depth2-probs probabilities</title>
  <desc id="desc">Probability bar chart generated from qcbm-static-depth2-probs.json.</desc>
  <rect width="100%" height="100%" fill="#ffffff"/>
  <text x="24" y="32" font-family="Arial, sans-serif" font-size="20" font-weight="700" fill="#172033">qcbm-static-depth2-probs</text>
  <text x="24" y="54" font-family="Arial, sans-serif" font-size="12" fill="#5b6472">probability distribution</text>
  <line x1="64" y1="284" x2="956" y2="284" stroke="#8792a2" stroke-width="1"/>
  <line x1="64" y1="64" x2="64" y2="284" stroke="#8792a2" stroke-width="1"/>
  <text x="52" y="68" text-anchor="end" font-family="Arial, sans-serif" font-size="11" fill="#5b6472">1.0000</text>
  <text x="52" y="288" text-anchor="end" font-family="Arial, sans-serif" font-size="11" fill="#5b6472">0.0000</text>
  <rect x="64.0" y="64.0" width="10" height="220.0" rx="3" fill="#2764d8"/>
  <text x="69.0" y="58.0" text-anchor="middle" font-family="Arial, sans-serif" font-size="10" fill="#172033">1.0000</text>
  <text x="69.0" y="302" text-anchor="middle" transform="rotate(90 69.0 302)" font-family="Arial, sans-serif" font-size="9" fill="#394150">000000</text>
  <rect x="78.0" y="284.0" width="10" height="0.0" rx="3" fill="#68a0ff"/>
  <text x="83.0" y="302" text-anchor="middle" transform="rotate(90 83.0 302)" font-family="Arial, sans-serif" font-size="9" fill="#394150">000001</text>
  <rect x="92.0" y="284.0" width="10" height="0.0" rx="3" fill="#68a0ff"/>
  <text x="97.0" y="302" text-anchor="middle" transform="rotate(90 97.0 302)" font-family="Arial, sans-serif" font-size="9" fill="#394150">000010</text>
  <rect x="106.0" y="284.0" width="10" height="0.0" rx="3" fill="#68a0ff"/>
  <text x="111.0" y="302" text-anchor="middle" transform="rotate(90 111.0 302)" font-family="Arial, sans-serif" font-size="9" fill="#394150">000011</text>
  <rect x="120.0" y="284.0" width="10" height="0.0" rx="3" fill="#68a0ff"/>
  <text x="125.0" y="302" text-anchor="middle" transform="rotate(90 125.0 302)" font-family="Arial, sans-serif" font-size="9" fill="#394150">000100</text>
  <rect x="134.0" y="284.0" width="10" height="0.0" rx="3" fill="#68a0ff"/>
  <text x="139.0" y="302" text-anchor="middle" transform="rotate(90 139.0 302)" font-family="Arial, sans-serif" font-size="9" fill="#394150">000101</text>
  <rect x="148.0" y="284.0" width="10" height="0.0" rx="3" fill="#68a0ff"/>
  <text x="153.0" y="302" text-anchor="middle" transform="rotate(90 153.0 302)" font-family="Arial, sans-serif" font-size="9" fill="#394150">000110</text>
  <rect x="162.0" y="284.0" width="10" height="0.0" rx="3" fill="#68a0ff"/>
  <text x="167.0" y="302" text-anchor="middle" transform="rotate(90 167.0 302)" font-family="Arial, sans-serif" font-size="9" fill="#394150">000111</text>
  <rect x="176.0" y="284.0" width="10" height="0.0" rx="3" fill="#68a0ff"/>
  <text x="181.0" y="302" text-anchor="middle" transform="rotate(90 181.0 302)" font-family="Arial, sans-serif" font-size="9" fill="#394150">001000</text>
  <rect x="190.0" y="284.0" width="10" height="0.0" rx="3" fill="#68a0ff"/>
  <text x="195.0" y="302" text-anchor="middle" transform="rotate(90 195.0 302)" font-family="Arial, sans-serif" font-size="9" fill="#394150">001001</text>
  <rect x="204.0" y="284.0" width="10" height="0.0" rx="3" fill="#68a0ff"/>
  <text x="209.0" y="302" text-anchor="middle" transform="rotate(90 209.0 302)" font-family="Arial, sans-serif" font-size="9" fill="#394150">001010</text>
  <rect x="218.0" y="284.0" width="10" height="0.0" rx="3" fill="#68a0ff"/>
  <text x="223.0" y="302" text-anchor="middle" transform="rotate(90 223.0 302)" font-family="Arial, sans-serif" font-size="9" fill="#394150">001011</text>
  <rect x="232.0" y="284.0" width="10" height="0.0" rx="3" fill="#68a0ff"/>
  <text x="237.0" y="302" text-anchor="middle" transform="rotate(90 237.0 302)" font-family="Arial, sans-serif" font-size="9" fill="#394150">001100</text>
  <rect x="246.0" y="284.0" width="10" height="0.0" rx="3" fill="#68a0ff"/>
  <text x="251.0" y="302" text-anchor="middle" transform="rotate(90 251.0 302)" font-family="Arial, sans-serif" font-size="9" fill="#394150">001101</text>
  <rect x="260.0" y="284.0" width="10" height="0.0" rx="3" fill="#68a0ff"/>
  <text x="265.0" y="302" text-anchor="middle" transform="rotate(90 265.0 302)" font-family="Arial, sans-serif" font-size="9" fill="#394150">001110</text>
  <rect x="274.0" y="284.0" width="10" height="0.0" rx="3" fill="#68a0ff"/>
  <text x="279.0" y="302" text-anchor="middle" transform="rotate(90 279.0 302)" font-family="Arial, sans-serif" font-size="9" fill="#394150">001111</text>
  <rect x="288.0" y="284.0" width="10" height="0.0" rx="3" fill="#68a0ff"/>
  <text x="293.0" y="302" text-anchor="middle" transform="rotate(90 293.0 302)" font-family="Arial, sans-serif" font-size="9" fill="#394150">010000</text>
  <rect x="302.0" y="284.0" width="10" height="0.0" rx="3" fill="#68a0ff"/>
  <text x="307.0" y="302" text-anchor="middle" transform="rotate(90 307.0 302)" font-family="Arial, sans-serif" font-size="9" fill="#394150">010001</text>
  <rect x="316.0" y="284.0" width="10" height="0.0" rx="3" fill="#68a0ff"/>
  <text x="321.0" y="302" text-anchor="middle" transform="rotate(90 321.0 302)" font-family="Arial, sans-serif" font-size="9" fill="#394150">010010</text>
  <rect x="330.0" y="284.0" width="10" height="0.0" rx="3" fill="#68a0ff"/>
  <text x="335.0" y="302" text-anchor="middle" transform="rotate(90 335.0 302)" font-family="Arial, sans-serif" font-size="9" fill="#394150">010011</text>
  <rect x="344.0" y="284.0" width="10" height="0.0" rx="3" fill="#68a0ff"/>
  <text x="349.0" y="302" text-anchor="middle" transform="rotate(90 349.0 302)" font-family="Arial, sans-serif" font-size="9" fill="#394150">010100</text>
  <rect x="358.0" y="284.0" width="10" height="0.0" rx="3" fill="#68a0ff"/>
  <text x="363.0" y="302" text-anchor="middle" transform="rotate(90 363.0 302)" font-family="Arial, sans-serif" font-size="9" fill="#394150">010101</text>
  <rect x="372.0" y="284.0" width="10" height="0.0" rx="3" fill="#68a0ff"/>
  <text x="377.0" y="302" text-anchor="middle" transform="rotate(90 377.0 302)" font-family="Arial, sans-serif" font-size="9" fill="#394150">010110</text>
  <rect x="386.0" y="284.0" width="10" height="0.0" rx="3" fill="#68a0ff"/>
  <text x="391.0" y="302" text-anchor="middle" transform="rotate(90 391.0 302)" font-family="Arial, sans-serif" font-size="9" fill="#394150">010111</text>
  <rect x="400.0" y="284.0" width="10" height="0.0" rx="3" fill="#68a0ff"/>
  <text x="405.0" y="302" text-anchor="middle" transform="rotate(90 405.0 302)" font-family="Arial, sans-serif" font-size="9" fill="#394150">011000</text>
  <rect x="414.0" y="284.0" width="10" height="0.0" rx="3" fill="#68a0ff"/>
  <text x="419.0" y="302" text-anchor="middle" transform="rotate(90 419.0 302)" font-family="Arial, sans-serif" font-size="9" fill="#394150">011001</text>
  <rect x="428.0" y="284.0" width="10" height="0.0" rx="3" fill="#68a0ff"/>
  <text x="433.0" y="302" text-anchor="middle" transform="rotate(90 433.0 302)" font-family="Arial, sans-serif" font-size="9" fill="#394150">011010</text>
  <rect x="442.0" y="284.0" width="10" height="0.0" rx="3" fill="#68a0ff"/>
  <text x="447.0" y="302" text-anchor="middle" transform="rotate(90 447.0 302)" font-family="Arial, sans-serif" font-size="9" fill="#394150">011011</text>
  <rect x="456.0" y="284.0" width="10" height="0.0" rx="3" fill="#68a0ff"/>
  <text x="461.0" y="302" text-anchor="middle" transform="rotate(90 461.0 302)" font-family="Arial, sans-serif" font-size="9" fill="#394150">011100</text>
  <rect x="470.0" y="284.0" width="10" height="0.0" rx="3" fill="#68a0ff"/>
  <text x="475.0" y="302" text-anchor="middle" transform="rotate(90 475.0 302)" font-family="Arial, sans-serif" font-size="9" fill="#394150">011101</text>
  <rect x="484.0" y="284.0" width="10" height="0.0" rx="3" fill="#68a0ff"/>
  <text x="489.0" y="302" text-anchor="middle" transform="rotate(90 489.0 302)" font-family="Arial, sans-serif" font-size="9" fill="#394150">011110</text>
  <rect x="498.0" y="284.0" width="10" height="0.0" rx="3" fill="#68a0ff"/>
  <text x="503.0" y="302" text-anchor="middle" transform="rotate(90 503.0 302)" font-family="Arial, sans-serif" font-size="9" fill="#394150">011111</text>
  <rect x="512.0" y="284.0" width="10" height="0.0" rx="3" fill="#68a0ff"/>
  <text x="517.0" y="302" text-anchor="middle" transform="rotate(90 517.0 302)" font-family="Arial, sans-serif" font-size="9" fill="#394150">100000</text>
  <rect x="526.0" y="284.0" width="10" height="0.0" rx="3" fill="#68a0ff"/>
  <text x="531.0" y="302" text-anchor="middle" transform="rotate(90 531.0 302)" font-family="Arial, sans-serif" font-size="9" fill="#394150">100001</text>
  <rect x="540.0" y="284.0" width="10" height="0.0" rx="3" fill="#68a0ff"/>
  <text x="545.0" y="302" text-anchor="middle" transform="rotate(90 545.0 302)" font-family="Arial, sans-serif" font-size="9" fill="#394150">100010</text>
  <rect x="554.0" y="284.0" width="10" height="0.0" rx="3" fill="#68a0ff"/>
  <text x="559.0" y="302" text-anchor="middle" transform="rotate(90 559.0 302)" font-family="Arial, sans-serif" font-size="9" fill="#394150">100011</text>
  <rect x="568.0" y="284.0" width="10" height="0.0" rx="3" fill="#68a0ff"/>
  <text x="573.0" y="302" text-anchor="middle" transform="rotate(90 573.0 302)" font-family="Arial, sans-serif" font-size="9" fill="#394150">100100</text>
  <rect x="582.0" y="284.0" width="10" height="0.0" rx="3" fill="#68a0ff"/>
  <text x="587.0" y="302" text-anchor="middle" transform="rotate(90 587.0 302)" font-family="Arial, sans-serif" font-size="9" fill="#394150">100101</text>
  <rect x="596.0" y="284.0" width="10" height="0.0" rx="3" fill="#68a0ff"/>
  <text x="601.0" y="302" text-anchor="middle" transform="rotate(90 601.0 302)" font-family="Arial, sans-serif" font-size="9" fill="#394150">100110</text>
  <rect x="610.0" y="284.0" width="10" height="0.0" rx="3" fill="#68a0ff"/>
  <text x="615.0" y="302" text-anchor="middle" transform="rotate(90 615.0 302)" font-family="Arial, sans-serif" font-size="9" fill="#394150">100111</text>
  <rect x="624.0" y="284.0" width="10" height="0.0" rx="3" fill="#68a0ff"/>
  <text x="629.0" y="302" text-anchor="middle" transform="rotate(90 629.0 302)" font-family="Arial, sans-serif" font-size="9" fill="#394150">101000</text>
  <rect x="638.0" y="284.0" width="10" height="0.0" rx="3" fill="#68a0ff"/>
  <text x="643.0" y="302" text-anchor="middle" transform="rotate(90 643.0 302)" font-family="Arial, sans-serif" font-size="9" fill="#394150">101001</text>
  <rect x="652.0" y="284.0" width="10" height="0.0" rx="3" fill="#68a0ff"/>
  <text x="657.0" y="302" text-anchor="middle" transform="rotate(90 657.0 302)" font-family="Arial, sans-serif" font-size="9" fill="#394150">101010</text>
  <rect x="666.0" y="284.0" width="10" height="0.0" rx="3" fill="#68a0ff"/>
  <text x="671.0" y="302" text-anchor="middle" transform="rotate(90 671.0 302)" font-family="Arial, sans-serif" font-size="9" fill="#394150">101011</text>
  <rect x="680.0" y="284.0" width="10" height="0.0" rx="3" fill="#68a0ff"/>
  <text x="685.0" y="302" text-anchor="middle" transform="rotate(90 685.0 302)" font-family="Arial, sans-serif" font-size="9" fill="#394150">101100</text>
  <rect x="694.0" y="284.0" width="10" height="0.0" rx="3" fill="#68a0ff"/>
  <text x="699.0" y="302" text-anchor="middle" transform="rotate(90 699.0 302)" font-family="Arial, sans-serif" font-size="9" fill="#394150">101101</text>
  <rect x="708.0" y="284.0" width="10" height="0.0" rx="3" fill="#68a0ff"/>
  <text x="713.0" y="302" text-anchor="middle" transform="rotate(90 713.0 302)" font-family="Arial, sans-serif" font-size="9" fill="#394150">101110</text>
  <rect x="722.0" y="284.0" width="10" height="0.0" rx="3" fill="#68a0ff"/>
  <text x="727.0" y="302" text-anchor="middle" transform="rotate(90 727.0 302)" font-family="Arial, sans-serif" font-size="9" fill="#394150">101111</text>
  <rect x="736.0" y="284.0" width="10" height="0.0" rx="3" fill="#68a0ff"/>
  <text x="741.0" y="302" text-anchor="middle" transform="rotate(90 741.0 302)" font-family="Arial, sans-serif" font-size="9" fill="#394150">110000</text>
  <rect x="750.0" y="284.0" width="10" height="0.0" rx="3" fill="#68a0ff"/>
  <text x="755.0" y="302" text-anchor="middle" transform="rotate(90 755.0 302)" font-family="Arial, sans-serif" font-size="9" fill="#394150">110001</text>
  <rect x="764.0" y="284.0" width="10" height="0.0" rx="3" fill="#68a0ff"/>
  <text x="769.0" y="302" text-anchor="middle" transform="rotate(90 769.0 302)" font-family="Arial, sans-serif" font-size="9" fill="#394150">110010</text>
  <rect x="778.0" y="284.0" width="10" height="0.0" rx="3" fill="#68a0ff"/>
  <text x="783.0" y="302" text-anchor="middle" transform="rotate(90 783.0 302)" font-family="Arial, sans-serif" font-size="9" fill="#394150">110011</text>
  <rect x="792.0" y="284.0" width="10" height="0.0" rx="3" fill="#68a0ff"/>
  <text x="797.0" y="302" text-anchor="middle" transform="rotate(90 797.0 302)" font-family="Arial, sans-serif" font-size="9" fill="#394150">110100</text>
  <rect x="806.0" y="284.0" width="10" height="0.0" rx="3" fill="#68a0ff"/>
  <text x="811.0" y="302" text-anchor="middle" transform="rotate(90 811.0 302)" font-family="Arial, sans-serif" font-size="9" fill="#394150">110101</text>
  <rect x="820.0" y="284.0" width="10" height="0.0" rx="3" fill="#68a0ff"/>
  <text x="825.0" y="302" text-anchor="middle" transform="rotate(90 825.0 302)" font-family="Arial, sans-serif" font-size="9" fill="#394150">110110</text>
  <rect x="834.0" y="284.0" width="10" height="0.0" rx="3" fill="#68a0ff"/>
  <text x="839.0" y="302" text-anchor="middle" transform="rotate(90 839.0 302)" font-family="Arial, sans-serif" font-size="9" fill="#394150">110111</text>
  <rect x="848.0" y="284.0" width="10" height="0.0" rx="3" fill="#68a0ff"/>
  <text x="853.0" y="302" text-anchor="middle" transform="rotate(90 853.0 302)" font-family="Arial, sans-serif" font-size="9" fill="#394150">111000</text>
  <rect x="862.0" y="284.0" width="10" height="0.0" rx="3" fill="#68a0ff"/>
  <text x="867.0" y="302" text-anchor="middle" transform="rotate(90 867.0 302)" font-family="Arial, sans-serif" font-size="9" fill="#394150">111001</text>
  <rect x="876.0" y="284.0" width="10" height="0.0" rx="3" fill="#68a0ff"/>
  <text x="881.0" y="302" text-anchor="middle" transform="rotate(90 881.0 302)" font-family="Arial, sans-serif" font-size="9" fill="#394150">111010</text>
  <rect x="890.0" y="284.0" width="10" height="0.0" rx="3" fill="#68a0ff"/>
  <text x="895.0" y="302" text-anchor="middle" transform="rotate(90 895.0 302)" font-family="Arial, sans-serif" font-size="9" fill="#394150">111011</text>
  <rect x="904.0" y="284.0" width="10" height="0.0" rx="3" fill="#68a0ff"/>
  <text x="909.0" y="302" text-anchor="middle" transform="rotate(90 909.0 302)" font-family="Arial, sans-serif" font-size="9" fill="#394150">111100</text>
  <rect x="918.0" y="284.0" width="10" height="0.0" rx="3" fill="#68a0ff"/>
  <text x="923.0" y="302" text-anchor="middle" transform="rotate(90 923.0 302)" font-family="Arial, sans-serif" font-size="9" fill="#394150">111101</text>
  <rect x="932.0" y="284.0" width="10" height="0.0" rx="3" fill="#68a0ff"/>
  <text x="937.0" y="302" text-anchor="middle" transform="rotate(90 937.0 302)" font-family="Arial, sans-serif" font-size="9" fill="#394150">111110</text>
  <rect x="946.0" y="284.0" width="10" height="0.0" rx="3" fill="#68a0ff"/>
  <text x="951.0" y="302" text-anchor="middle" transform="rotate(90 951.0 302)" font-family="Arial, sans-serif" font-size="9" fill="#394150">111111</text>
  <text x="510.0" y="354" text-anchor="middle" font-family="Arial, sans-serif" font-size="12" fill="#5b6472">basis state</text>
</svg>
