<svg xmlns="http://www.w3.org/2000/svg" viewBox="0 0 856 200"><style>
.wire { stroke: #444; stroke-width: 2; }
.gate-box { fill: #fff; stroke: #111; stroke-width: 2; }
.channel-box { fill: #fff; stroke: #111; stroke-width: 2; stroke-dasharray: 6 4; }
.gate-label, .channel-label, .annotation-label { fill: #111; font-family: monospace; text-anchor: middle; dominant-baseline: middle; }
.annotation-label { dominant-baseline: auto; }
.control { fill: #111; stroke: #111; stroke-width: 2; }
.control-open { fill: #fff; stroke: #111; stroke-width: 2; }
.control-link { stroke: #111; stroke-width: 2; }
.target-x { fill: none; stroke: #111; stroke-width: 2; }
.swap-marker { stroke: #111; stroke-width: 2; }
</style><line class="wire" x1="16" y1="28" x2="840" y2="28"/><line class="wire" x1="16" y1="76" x2="840" y2="76"/><line class="wire" x1="16" y1="124" x2="840" y2="124"/><line class="wire" x1="16" y1="172" x2="840" y2="172"/><rect class="gate-box" x="47" y="14" width="42" height="28" rx="6" ry="6" data-label="H"/><text class="gate-label" x="68" y="28">H</text><rect class="gate-box" x="119" y="62" width="42" height="28" rx="6" ry="6" data-label="H"/><text class="gate-label" x="140" y="76">H</text><rect class="gate-box" x="191" y="110" width="42" height="28" rx="6" ry="6" data-label="H"/><text class="gate-label" x="212" y="124">H</text><rect class="gate-box" x="263" y="158" width="42" height="28" rx="6" ry="6" data-label="H"/><text class="gate-label" x="284" y="172">H</text><rect class="gate-box" x="335" y="14" width="42" height="28" rx="6" ry="6" data-label="Z"/><text class="gate-label" x="356" y="28">Z</text><rect class="gate-box" x="407" y="110" width="42" height="28" rx="6" ry="6" data-label="Z"/><text class="gate-label" x="428" y="124">Z</text><rect class="gate-box" x="479" y="158" width="42" height="28" rx="6" ry="6" data-label="Z"/><text class="gate-label" x="500" y="172">Z</text><rect class="gate-box" x="551" y="14" width="42" height="28" rx="6" ry="6" data-label="H"/><text class="gate-label" x="572" y="28">H</text><rect class="gate-box" x="623" y="62" width="42" height="28" rx="6" ry="6" data-label="H"/><text class="gate-label" x="644" y="76">H</text><rect class="gate-box" x="695" y="110" width="42" height="28" rx="6" ry="6" data-label="H"/><text class="gate-label" x="716" y="124">H</text><rect class="gate-box" x="767" y="158" width="42" height="28" rx="6" ry="6" data-label="H"/><text class="gate-label" x="788" y="172">H</text></svg>