<svg xmlns="http://www.w3.org/2000/svg" viewBox="0 0 2770 200"><style>
.wire { stroke: #444; stroke-width: 2; }
.gate-box { fill: #fff; stroke: #111; stroke-width: 2; }
.channel-box { fill: #fff; stroke: #111; stroke-width: 2; stroke-dasharray: 6 4; }
.gate-label, .channel-label, .annotation-label { fill: #111; font-family: monospace; text-anchor: middle; dominant-baseline: middle; }
.annotation-label { dominant-baseline: auto; }
.control { fill: #111; stroke: #111; stroke-width: 2; }
.control-open { fill: #fff; stroke: #111; stroke-width: 2; }
.control-link { stroke: #111; stroke-width: 2; }
.target-x { fill: none; stroke: #111; stroke-width: 2; }
.swap-marker { stroke: #111; stroke-width: 2; }
</style><line class="wire" x1="16" y1="28" x2="2754" y2="28"/><line class="wire" x1="16" y1="76" x2="2754" y2="76"/><line class="wire" x1="16" y1="124" x2="2754" y2="124"/><line class="wire" x1="16" y1="172" x2="2754" y2="172"/><rect class="gate-box" x="47" y="14" width="42" height="28" rx="6" ry="6" data-label="H"/><text class="gate-label" x="68" y="28">H</text><rect class="gate-box" x="119" y="62" width="42" height="28" rx="6" ry="6" data-label="H"/><text class="gate-label" x="140" y="76">H</text><rect class="gate-box" x="191" y="110" width="42" height="28" rx="6" ry="6" data-label="H"/><text class="gate-label" x="212" y="124">H</text><rect class="gate-box" x="263" y="158" width="42" height="28" rx="6" ry="6" data-label="H"/><text class="gate-label" x="284" y="172">H</text><line class="control-link" x1="356" y1="28" x2="356" y2="76"/><circle class="control" cx="356" cy="28" r="5"/><circle class="target-x" cx="356" cy="76" r="12"/><line class="target-x" x1="348" y1="76" x2="364" y2="76"/><line class="target-x" x1="356" y1="68" x2="356" y2="84"/><rect class="gate-box" x="401" y="62" width="93" height="28" rx="6" ry="6" data-label="Rz(0.2000)"/><text class="gate-label" x="447.5" y="76">Rz(0.2000)</text><line class="control-link" x1="539" y1="28" x2="539" y2="76"/><circle class="control" cx="539" cy="28" r="5"/><circle class="target-x" cx="539" cy="76" r="12"/><line class="target-x" x1="531" y1="76" x2="547" y2="76"/><line class="target-x" x1="539" y1="68" x2="539" y2="84"/><line class="control-link" x1="611" y1="76" x2="611" y2="124"/><circle class="control" cx="611" cy="76" r="5"/><circle class="target-x" cx="611" cy="124" r="12"/><line class="target-x" x1="603" y1="124" x2="619" y2="124"/><line class="target-x" x1="611" y1="116" x2="611" y2="132"/><rect class="gate-box" x="656" y="110" width="93" height="28" rx="6" ry="6" data-label="Rz(0.2000)"/><text class="gate-label" x="702.5" y="124">Rz(0.2000)</text><line class="control-link" x1="794" y1="76" x2="794" y2="124"/><circle class="control" cx="794" cy="76" r="5"/><circle class="target-x" cx="794" cy="124" r="12"/><line class="target-x" x1="786" y1="124" x2="802" y2="124"/><line class="target-x" x1="794" y1="116" x2="794" y2="132"/><line class="control-link" x1="866" y1="124" x2="866" y2="172"/><circle class="control" cx="866" cy="124" r="5"/><circle class="target-x" cx="866" cy="172" r="12"/><line class="target-x" x1="858" y1="172" x2="874" y2="172"/><line class="target-x" x1="866" y1="164" x2="866" y2="180"/><rect class="gate-box" x="911" y="158" width="93" height="28" rx="6" ry="6" data-label="Rz(0.2000)"/><text class="gate-label" x="957.5" y="172">Rz(0.2000)</text><line class="control-link" x1="1049" y1="124" x2="1049" y2="172"/><circle class="control" cx="1049" cy="124" r="5"/><circle class="target-x" cx="1049" cy="172" r="12"/><line class="target-x" x1="1041" y1="172" x2="1057" y2="172"/><line class="target-x" x1="1049" y1="164" x2="1049" y2="180"/><rect class="gate-box" x="1094" y="14" width="93" height="28" rx="6" ry="6" data-label="Rx(0.6000)"/><text class="gate-label" x="1140.5" y="28">Rx(0.6000)</text><rect class="gate-box" x="1205" y="62" width="93" height="28" rx="6" ry="6" data-label="Rx(0.6000)"/><text class="gate-label" x="1251.5" y="76">Rx(0.6000)</text><rect class="gate-box" x="1316" y="110" width="93" height="28" rx="6" ry="6" data-label="Rx(0.6000)"/><text class="gate-label" x="1362.5" y="124">Rx(0.6000)</text><rect class="gate-box" x="1427" y="158" width="93" height="28" rx="6" ry="6" data-label="Rx(0.6000)"/><text class="gate-label" x="1473.5" y="172">Rx(0.6000)</text><line class="control-link" x1="1565" y1="28" x2="1565" y2="76"/><circle class="control" cx="1565" cy="28" r="5"/><circle class="target-x" cx="1565" cy="76" r="12"/><line class="target-x" x1="1557" y1="76" x2="1573" y2="76"/><line class="target-x" x1="1565" y1="68" x2="1565" y2="84"/><rect class="gate-box" x="1610" y="62" width="93" height="28" rx="6" ry="6" data-label="Rz(0.2000)"/><text class="gate-label" x="1656.5" y="76">Rz(0.2000)</text><line class="control-link" x1="1748" y1="28" x2="1748" y2="76"/><circle class="control" cx="1748" cy="28" r="5"/><circle class="target-x" cx="1748" cy="76" r="12"/><line class="target-x" x1="1740" y1="76" x2="1756" y2="76"/><line class="target-x" x1="1748" y1="68" x2="1748" y2="84"/><line class="control-link" x1="1820" y1="76" x2="1820" y2="124"/><circle class="control" cx="1820" cy="76" r="5"/><circle class="target-x" cx="1820" cy="124" r="12"/><line class="target-x" x1="1812" y1="124" x2="1828" y2="124"/><line class="target-x" x1="1820" y1="116" x2="1820" y2="132"/><rect class="gate-box" x="1865" y="110" width="93" height="28" rx="6" ry="6" data-label="Rz(0.2000)"/><text class="gate-label" x="1911.5" y="124">Rz(0.2000)</text><line class="control-link" x1="2003" y1="76" x2="2003" y2="124"/><circle class="control" cx="2003" cy="76" r="5"/><circle class="target-x" cx="2003" cy="124" r="12"/><line class="target-x" x1="1995" y1="124" x2="2011" y2="124"/><line class="target-x" x1="2003" y1="116" x2="2003" y2="132"/><line class="control-link" x1="2075" y1="124" x2="2075" y2="172"/><circle class="control" cx="2075" cy="124" r="5"/><circle class="target-x" cx="2075" cy="172" r="12"/><line class="target-x" x1="2067" y1="172" x2="2083" y2="172"/><line class="target-x" x1="2075" y1="164" x2="2075" y2="180"/><rect class="gate-box" x="2120" y="158" width="93" height="28" rx="6" ry="6" data-label="Rz(0.2000)"/><text class="gate-label" x="2166.5" y="172">Rz(0.2000)</text><line class="control-link" x1="2258" y1="124" x2="2258" y2="172"/><circle class="control" cx="2258" cy="124" r="5"/><circle class="target-x" cx="2258" cy="172" r="12"/><line class="target-x" x1="2250" y1="172" x2="2266" y2="172"/><line class="target-x" x1="2258" y1="164" x2="2258" y2="180"/><rect class="gate-box" x="2303" y="14" width="93" height="28" rx="6" ry="6" data-label="Rx(0.6000)"/><text class="gate-label" x="2349.5" y="28">Rx(0.6000)</text><rect class="gate-box" x="2414" y="62" width="93" height="28" rx="6" ry="6" data-label="Rx(0.6000)"/><text class="gate-label" x="2460.5" y="76">Rx(0.6000)</text><rect class="gate-box" x="2525" y="110" width="93" height="28" rx="6" ry="6" data-label="Rx(0.6000)"/><text class="gate-label" x="2571.5" y="124">Rx(0.6000)</text><rect class="gate-box" x="2636" y="158" width="93" height="28" rx="6" ry="6" data-label="Rx(0.6000)"/><text class="gate-label" x="2682.5" y="172">Rx(0.6000)</text></svg>