<svg xmlns="http://www.w3.org/2000/svg" viewBox="0 0 5590 296"><style>
.wire { stroke: #444; stroke-width: 2; }
.gate-box { fill: #fff; stroke: #111; stroke-width: 2; }
.channel-box { fill: #fff; stroke: #111; stroke-width: 2; stroke-dasharray: 6 4; }
.gate-label, .channel-label, .annotation-label { fill: #111; font-family: monospace; text-anchor: middle; dominant-baseline: middle; }
.annotation-label { dominant-baseline: auto; }
.control { fill: #111; stroke: #111; stroke-width: 2; }
.control-open { fill: #fff; stroke: #111; stroke-width: 2; }
.control-link { stroke: #111; stroke-width: 2; }
.target-x { fill: none; stroke: #111; stroke-width: 2; }
.swap-marker { stroke: #111; stroke-width: 2; }
</style><line class="wire" x1="16" y1="28" x2="5574" y2="28"/><line class="wire" x1="16" y1="76" x2="5574" y2="76"/><line class="wire" x1="16" y1="124" x2="5574" y2="124"/><line class="wire" x1="16" y1="172" x2="5574" y2="172"/><line class="wire" x1="16" y1="220" x2="5574" y2="220"/><line class="wire" x1="16" y1="268" x2="5574" y2="268"/><rect class="gate-box" x="41" y="14" width="93" height="28" rx="6" ry="6" data-label="Rx(0.0000)"/><text class="gate-label" x="87.5" y="28">Rx(0.0000)</text><rect class="gate-box" x="152" y="14" width="93" height="28" rx="6" ry="6" data-label="Rz(0.0000)"/><text class="gate-label" x="198.5" y="28">Rz(0.0000)</text><rect class="gate-box" x="263" y="62" width="93" height="28" rx="6" ry="6" data-label="Rx(0.0000)"/><text class="gate-label" x="309.5" y="76">Rx(0.0000)</text><rect class="gate-box" x="374" y="62" width="93" height="28" rx="6" ry="6" data-label="Rz(0.0000)"/><text class="gate-label" x="420.5" y="76">Rz(0.0000)</text><rect class="gate-box" x="485" y="110" width="93" height="28" rx="6" ry="6" data-label="Rx(0.0000)"/><text class="gate-label" x="531.5" y="124">Rx(0.0000)</text><rect class="gate-box" x="596" y="110" width="93" height="28" rx="6" ry="6" data-label="Rz(0.0000)"/><text class="gate-label" x="642.5" y="124">Rz(0.0000)</text><rect class="gate-box" x="707" y="158" width="93" height="28" rx="6" ry="6" data-label="Rx(0.0000)"/><text class="gate-label" x="753.5" y="172">Rx(0.0000)</text><rect class="gate-box" x="818" y="158" width="93" height="28" rx="6" ry="6" data-label="Rz(0.0000)"/><text class="gate-label" x="864.5" y="172">Rz(0.0000)</text><rect class="gate-box" x="929" y="206" width="93" height="28" rx="6" ry="6" data-label="Rx(0.0000)"/><text class="gate-label" x="975.5" y="220">Rx(0.0000)</text><rect class="gate-box" x="1040" y="206" width="93" height="28" rx="6" ry="6" data-label="Rz(0.0000)"/><text class="gate-label" x="1086.5" y="220">Rz(0.0000)</text><rect class="gate-box" x="1151" y="254" width="93" height="28" rx="6" ry="6" data-label="Rx(0.0000)"/><text class="gate-label" x="1197.5" y="268">Rx(0.0000)</text><rect class="gate-box" x="1262" y="254" width="93" height="28" rx="6" ry="6" data-label="Rz(0.0000)"/><text class="gate-label" x="1308.5" y="268">Rz(0.0000)</text><line class="control-link" x1="1400" y1="28" x2="1400" y2="76"/><circle class="control" cx="1400" cy="28" r="5"/><circle class="target-x" cx="1400" cy="76" r="12"/><line class="target-x" x1="1392" y1="76" x2="1408" y2="76"/><line class="target-x" x1="1400" y1="68" x2="1400" y2="84"/><line class="control-link" x1="1472" y1="76" x2="1472" y2="124"/><circle class="control" cx="1472" cy="76" r="5"/><circle class="target-x" cx="1472" cy="124" r="12"/><line class="target-x" x1="1464" y1="124" x2="1480" y2="124"/><line class="target-x" x1="1472" y1="116" x2="1472" y2="132"/><line class="control-link" x1="1544" y1="124" x2="1544" y2="172"/><circle class="control" cx="1544" cy="124" r="5"/><circle class="target-x" cx="1544" cy="172" r="12"/><line class="target-x" x1="1536" y1="172" x2="1552" y2="172"/><line class="target-x" x1="1544" y1="164" x2="1544" y2="180"/><line class="control-link" x1="1616" y1="172" x2="1616" y2="220"/><circle class="control" cx="1616" cy="172" r="5"/><circle class="target-x" cx="1616" cy="220" r="12"/><line class="target-x" x1="1608" y1="220" x2="1624" y2="220"/><line class="target-x" x1="1616" y1="212" x2="1616" y2="228"/><line class="control-link" x1="1688" y1="220" x2="1688" y2="268"/><circle class="control" cx="1688" cy="220" r="5"/><circle class="target-x" cx="1688" cy="268" r="12"/><line class="target-x" x1="1680" y1="268" x2="1696" y2="268"/><line class="target-x" x1="1688" y1="260" x2="1688" y2="276"/><line class="control-link" x1="1760" y1="28" x2="1760" y2="268"/><circle class="control" cx="1760" cy="268" r="5"/><circle class="target-x" cx="1760" cy="28" r="12"/><line class="target-x" x1="1752" y1="28" x2="1768" y2="28"/><line class="target-x" x1="1760" y1="20" x2="1760" y2="36"/><rect class="gate-box" x="1805" y="14" width="93" height="28" rx="6" ry="6" data-label="Rz(0.0000)"/><text class="gate-label" x="1851.5" y="28">Rz(0.0000)</text><rect class="gate-box" x="1916" y="14" width="93" height="28" rx="6" ry="6" data-label="Rx(0.0000)"/><text class="gate-label" x="1962.5" y="28">Rx(0.0000)</text><rect class="gate-box" x="2027" y="14" width="93" height="28" rx="6" ry="6" data-label="Rz(0.0000)"/><text class="gate-label" x="2073.5" y="28">Rz(0.0000)</text><rect class="gate-box" x="2138" y="62" width="93" height="28" rx="6" ry="6" data-label="Rz(0.0000)"/><text class="gate-label" x="2184.5" y="76">Rz(0.0000)</text><rect class="gate-box" x="2249" y="62" width="93" height="28" rx="6" ry="6" data-label="Rx(0.0000)"/><text class="gate-label" x="2295.5" y="76">Rx(0.0000)</text><rect class="gate-box" x="2360" y="62" width="93" height="28" rx="6" ry="6" data-label="Rz(0.0000)"/><text class="gate-label" x="2406.5" y="76">Rz(0.0000)</text><rect class="gate-box" x="2471" y="110" width="93" height="28" rx="6" ry="6" data-label="Rz(0.0000)"/><text class="gate-label" x="2517.5" y="124">Rz(0.0000)</text><rect class="gate-box" x="2582" y="110" width="93" height="28" rx="6" ry="6" data-label="Rx(0.0000)"/><text class="gate-label" x="2628.5" y="124">Rx(0.0000)</text><rect class="gate-box" x="2693" y="110" width="93" height="28" rx="6" ry="6" data-label="Rz(0.0000)"/><text class="gate-label" x="2739.5" y="124">Rz(0.0000)</text><rect class="gate-box" x="2804" y="158" width="93" height="28" rx="6" ry="6" data-label="Rz(0.0000)"/><text class="gate-label" x="2850.5" y="172">Rz(0.0000)</text><rect class="gate-box" x="2915" y="158" width="93" height="28" rx="6" ry="6" data-label="Rx(0.0000)"/><text class="gate-label" x="2961.5" y="172">Rx(0.0000)</text><rect class="gate-box" x="3026" y="158" width="93" height="28" rx="6" ry="6" data-label="Rz(0.0000)"/><text class="gate-label" x="3072.5" y="172">Rz(0.0000)</text><rect class="gate-box" x="3137" y="206" width="93" height="28" rx="6" ry="6" data-label="Rz(0.0000)"/><text class="gate-label" x="3183.5" y="220">Rz(0.0000)</text><rect class="gate-box" x="3248" y="206" width="93" height="28" rx="6" ry="6" data-label="Rx(0.0000)"/><text class="gate-label" x="3294.5" y="220">Rx(0.0000)</text><rect class="gate-box" x="3359" y="206" width="93" height="28" rx="6" ry="6" data-label="Rz(0.0000)"/><text class="gate-label" x="3405.5" y="220">Rz(0.0000)</text><rect class="gate-box" x="3470" y="254" width="93" height="28" rx="6" ry="6" data-label="Rz(0.0000)"/><text class="gate-label" x="3516.5" y="268">Rz(0.0000)</text><rect class="gate-box" x="3581" y="254" width="93" height="28" rx="6" ry="6" data-label="Rx(0.0000)"/><text class="gate-label" x="3627.5" y="268">Rx(0.0000)</text><rect class="gate-box" x="3692" y="254" width="93" height="28" rx="6" ry="6" data-label="Rz(0.0000)"/><text class="gate-label" x="3738.5" y="268">Rz(0.0000)</text><line class="control-link" x1="3830" y1="28" x2="3830" y2="76"/><circle class="control" cx="3830" cy="28" r="5"/><circle class="target-x" cx="3830" cy="76" r="12"/><line class="target-x" x1="3822" y1="76" x2="3838" y2="76"/><line class="target-x" x1="3830" y1="68" x2="3830" y2="84"/><line class="control-link" x1="3902" y1="76" x2="3902" y2="124"/><circle class="control" cx="3902" cy="76" r="5"/><circle class="target-x" cx="3902" cy="124" r="12"/><line class="target-x" x1="3894" y1="124" x2="3910" y2="124"/><line class="target-x" x1="3902" y1="116" x2="3902" y2="132"/><line class="control-link" x1="3974" y1="124" x2="3974" y2="172"/><circle class="control" cx="3974" cy="124" r="5"/><circle class="target-x" cx="3974" cy="172" r="12"/><line class="target-x" x1="3966" y1="172" x2="3982" y2="172"/><line class="target-x" x1="3974" y1="164" x2="3974" y2="180"/><line class="control-link" x1="4046" y1="172" x2="4046" y2="220"/><circle class="control" cx="4046" cy="172" r="5"/><circle class="target-x" cx="4046" cy="220" r="12"/><line class="target-x" x1="4038" y1="220" x2="4054" y2="220"/><line class="target-x" x1="4046" y1="212" x2="4046" y2="228"/><line class="control-link" x1="4118" y1="220" x2="4118" y2="268"/><circle class="control" cx="4118" cy="220" r="5"/><circle class="target-x" cx="4118" cy="268" r="12"/><line class="target-x" x1="4110" y1="268" x2="4126" y2="268"/><line class="target-x" x1="4118" y1="260" x2="4118" y2="276"/><line class="control-link" x1="4190" y1="28" x2="4190" y2="268"/><circle class="control" cx="4190" cy="268" r="5"/><circle class="target-x" cx="4190" cy="28" r="12"/><line class="target-x" x1="4182" y1="28" x2="4198" y2="28"/><line class="target-x" x1="4190" y1="20" x2="4190" y2="36"/><rect class="gate-box" x="4235" y="14" width="93" height="28" rx="6" ry="6" data-label="Rz(0.0000)"/><text class="gate-label" x="4281.5" y="28">Rz(0.0000)</text><rect class="gate-box" x="4346" y="14" width="93" height="28" rx="6" ry="6" data-label="Rx(0.0000)"/><text class="gate-label" x="4392.5" y="28">Rx(0.0000)</text><rect class="gate-box" x="4457" y="62" width="93" height="28" rx="6" ry="6" data-label="Rz(0.0000)"/><text class="gate-label" x="4503.5" y="76">Rz(0.0000)</text><rect class="gate-box" x="4568" y="62" width="93" height="28" rx="6" ry="6" data-label="Rx(0.0000)"/><text class="gate-label" x="4614.5" y="76">Rx(0.0000)</text><rect class="gate-box" x="4679" y="110" width="93" height="28" rx="6" ry="6" data-label="Rz(0.0000)"/><text class="gate-label" x="4725.5" y="124">Rz(0.0000)</text><rect class="gate-box" x="4790" y="110" width="93" height="28" rx="6" ry="6" data-label="Rx(0.0000)"/><text class="gate-label" x="4836.5" y="124">Rx(0.0000)</text><rect class="gate-box" x="4901" y="158" width="93" height="28" rx="6" ry="6" data-label="Rz(0.0000)"/><text class="gate-label" x="4947.5" y="172">Rz(0.0000)</text><rect class="gate-box" x="5012" y="158" width="93" height="28" rx="6" ry="6" data-label="Rx(0.0000)"/><text class="gate-label" x="5058.5" y="172">Rx(0.0000)</text><rect class="gate-box" x="5123" y="206" width="93" height="28" rx="6" ry="6" data-label="Rz(0.0000)"/><text class="gate-label" x="5169.5" y="220">Rz(0.0000)</text><rect class="gate-box" x="5234" y="206" width="93" height="28" rx="6" ry="6" data-label="Rx(0.0000)"/><text class="gate-label" x="5280.5" y="220">Rx(0.0000)</text><rect class="gate-box" x="5345" y="254" width="93" height="28" rx="6" ry="6" data-label="Rz(0.0000)"/><text class="gate-label" x="5391.5" y="268">Rz(0.0000)</text><rect class="gate-box" x="5456" y="254" width="93" height="28" rx="6" ry="6" data-label="Rx(0.0000)"/><text class="gate-label" x="5502.5" y="268">Rx(0.0000)</text></svg>